<?xml version="1.0" encoding="utf-8"?>
<!-- Generator: Adobe Illustrator 21.1.0, SVG Export Plug-In . SVG Version: 6.00 Build 0)  -->
<svg version="1.1" id="Layer_1" xmlns="http://www.w3.org/2000/svg" xmlns:xlink="http://www.w3.org/1999/xlink" x="0px" y="0px"
	 viewBox="0 0 705.5 288.2" style="enable-background:new 0 0 705.5 288.2;" xml:space="preserve">
<style type="text/css">
	.st0{fill:#86D0F4;}
	.st1{fill:#004B93;}
</style>
<g>
	<path class="st0" d="M443.9,180.3c-36.2,17.6-62.5,53.9-60.1,80.5C241,218.4,108.1,234.3,11.7,282.4c-5.6,2.8-10.8,2.3-1.9-3
		C107.3,221.7,295.1,170.6,443.9,180.3z"/>
	<path class="st1" d="M701.6,126.2l-5.1,24.1c0,0-1.5,10.8-9.1,14.8c-7.6,4-20.1,3.9-20.1,3.9H532.4l8-37.7
		c-13.3,29.3-48.2,43.3-109.8,43.3c-29.9,0-61-2.6-78-15.6l2.1,10H288l-2.8-18.3h-65.5l-10.6,18.3h-66.8l87.9-137.7
		c0,0,8.6-14.2,15.4-17.6c7.8-3.9,21.9-3.7,21.9-3.7h53.3L344.5,121h71.8c-0.9,5.3,0.3,8.9,4.3,11.4c4.2,2.2,10.9,3.3,20.7,3.3
		c19.6,0,26.1-5.3,27.7-12.9c1-4.7-0.9-9.4-9.1-10.7l-69.4-10.7c-29.7-4.7-38.6-22.5-33.9-44.7C365.3,15.5,408,4.4,459.7,4.4
		c70.8,0,96,18.5,91.1,52.1h-73c1.4-6.5-1.6-10.5-6.9-12.7c-5-2.4-12-3.3-18.9-3.3c-18.7,0-26.1,4.7-27.6,11.4
		c-0.9,4.5,0.4,7.3,6.5,8.2l72.7,11.1c25.6,3.9,41.3,14.8,42.4,34.1l20.3-95.3H629l-24.7,116.2H701.6z M312.5,88.4
		c0,0-20.7-9.9-45.7-8.4c-38,2.2-51.2,26-51.2,26s16.1-11.3,45.6-9.9c20.4,1,32.3,8.6,32.3,8.6s2.7-8.6,7.5-12
		C306,89.1,312.5,88.4,312.5,88.4z"/>
	<path class="st1" d="M471.7,183.6h7.1l5.3,33.7h-7.5l-1-7.5h-14.1l-5.1,7.5h-7.9L471.7,183.6z M474.6,203.3l-1.5-11l-7.3,11H474.6z
		"/>
	<path class="st1" d="M497.5,183.9h7.3l-9,33.4h-7.3L497.5,183.9z"/>
	<path class="st1" d="M513.2,183.9h12.2c5,0,8.3,1.1,10.6,3.3c1.7,1.7,2.6,4,2.6,6.7c0,6-3.7,10.3-10.8,11.9l5.7,11.4h-8.3
		l-5.2-10.7h-5.5l-2.9,10.7h-7.3L513.2,183.9z M522.8,200.1c4.6,0,8.1-1.9,8.1-5.5c0-1.2-0.3-2-1.1-2.7c-0.9-0.9-2.5-1.4-4.9-1.4
		h-6.2l-2.6,9.6H522.8z"/>
	<path class="st1" d="M547.9,183.9h7.3l-7.2,26.7h16.7l-1.8,6.7h-24L547.9,183.9z"/>
	<path class="st1" d="M578.1,183.9h7.3l-9,33.4h-7.3L578.1,183.9z"/>
	<path class="st1" d="M593.8,183.9h6.8l9.7,21.2l5.7-21.2h7.3l-9,33.4h-6.2L598,195.4l-5.9,21.9h-7.3L593.8,183.9z"/>
	<path class="st1" d="M631.3,183.9h25l-1.8,6.5h-17.7l-1.8,6.8h15.5l-1.8,6.4h-15.5l-1.9,7.1h17.9l-1.8,6.5h-25.2L631.3,183.9z"/>
	<path class="st1" d="M653,211.6l5.5-4.7c2.6,2.9,5.5,4.4,9.4,4.4c3,0,5.1-1.4,5.1-3.5c0-1.6-1.2-2.6-5.7-4.4
		c-4.3-1.8-8.2-4.1-8.2-9c0-6.8,6.1-11,13.3-11c5.7,0,9.7,2,12.5,5l-5.1,5.1c-2.5-2.3-4.8-3.6-8-3.6c-3.1,0-4.9,1.7-4.9,3.4
		c0,1.8,1.3,2.5,5.9,4.4c4.6,1.9,8,4.2,8,9c0,7-6.2,11.1-13.3,11.1C661.2,217.8,656.2,215.7,653,211.6z"/>
	<path class="st0" d="M432,230h25.4l-1.8,6.7h-18.1l-1.9,7.1h15.9l-1.8,6.7h-15.9l-3.5,12.9h-7.4L432,230z"/>
	<path class="st0" d="M463.7,230h12.2c5,0,8.3,1.1,10.6,3.3c1.7,1.7,2.6,4,2.6,6.7c0,6-3.7,10.3-10.8,11.9l5.7,11.4h-8.3l-5.2-10.7
		h-5.5l-2.9,10.7h-7.4L463.7,230z M473.2,246.2c4.6,0,8.1-1.9,8.1-5.5c0-1.1-0.3-2-1.1-2.7c-0.9-0.9-2.5-1.4-4.9-1.4h-6.2l-2.6,9.6
		H473.2z"/>
	<path class="st0" d="M509,229.7h7.1l5.3,33.7h-7.5l-1-7.5h-14.1l-5.1,7.5h-7.9L509,229.7z M511.9,249.4l-1.5-11l-7.3,11H511.9z"/>
	<path class="st0" d="M534.4,230h6.8l9.7,21.2l5.7-21.2h7.3l-9,33.4h-6.3l-10.1-21.9l-5.9,21.9h-7.3L534.4,230z"/>
	<path class="st0" d="M565.6,249.4c0-10.6,9.1-20,20.3-20c6.4,0,10.7,2.7,13.4,7.1l-6.1,4.2c-2-2.8-4.2-4.6-8.2-4.6
		c-6.1,0-11.8,5.8-11.8,12.9c0,4.8,3.4,8.1,8.2,8.1c3.2,0,5.3-1.3,7.8-3.3l4.8,5c-3.2,3-7.1,5.1-12.6,5.1
		C572.2,263.9,565.6,258.3,565.6,249.4z"/>
	<path class="st0" d="M606.6,230h25l-1.8,6.5h-17.7l-1.8,6.8h15.5l-1.8,6.4h-15.5l-1.9,7.1h17.9l-1.8,6.5h-25.2L606.6,230z"/>
</g>
</svg>
